<svg width="1078" height="1078" viewBox="0 0 1078 1078" fill="none" xmlns="http://www.w3.org/2000/svg">
<path fill-rule="evenodd" clip-rule="evenodd" d="M175.089 490.345C401.917 391.559 553.171 326.433 628.851 294.968C844.933 205.127 889.833 189.521 919.099 189.005C925.535 188.892 939.927 190.487 949.249 198.048C957.121 204.433 959.287 213.058 960.323 219.111C961.36 225.165 962.65 238.955 961.624 249.73C949.915 372.715 899.248 671.167 873.471 808.913C862.564 867.198 841.088 886.741 820.296 888.653C775.111 892.809 740.8 858.804 697.036 830.127C628.555 785.255 589.867 757.321 523.394 713.533C446.572 662.929 496.372 635.116 540.153 589.662C551.61 577.767 750.696 396.755 754.549 380.334C755.031 378.28 755.478 370.625 750.929 366.583C746.379 362.541 739.664 363.923 734.819 365.022C727.95 366.581 618.55 438.862 406.618 581.865C375.565 603.18 347.438 613.565 322.238 613.021C294.456 612.421 241.015 597.319 201.288 584.41C152.56 568.577 113.832 560.206 117.205 533.316C118.961 519.311 138.256 504.987 175.089 490.345Z" fill="url(#paint0_linear_4_2)"/>
<path d="M176.198 493.133L176.243 493.115L176.287 493.096C403.119 394.308 554.349 329.192 630.003 297.738C738.055 252.813 803.237 226.478 845.054 211.31C886.923 196.123 905.058 192.253 919.151 192.005C922.133 191.953 927.088 192.299 932.395 193.567C937.721 194.839 943.175 196.984 947.36 200.378C954.355 206.052 956.362 213.752 957.366 219.618C958.373 225.5 959.631 239.012 958.638 249.446C946.943 372.278 896.301 670.605 870.522 808.361C859.669 866.359 838.663 883.951 820.021 885.666C798.314 887.663 779.087 880.528 759.652 869.116C749.927 863.404 740.216 856.662 730.141 849.508C728.461 848.315 726.771 847.11 725.069 845.898C716.596 839.86 707.842 833.621 698.681 827.618C664.463 805.197 637.689 787.008 611.15 768.943L607.64 766.554C582.277 749.289 556.836 731.97 525.044 711.028C505.995 698.48 495.206 687.596 490.106 677.833C485.119 668.286 485.462 659.606 489.295 650.872C493.217 641.933 500.8 632.946 510.401 623.18C514.631 618.877 519.193 614.481 523.943 609.904C524.557 609.312 525.174 608.717 525.795 608.119C531.198 602.908 536.799 597.469 542.313 591.743C544.995 588.959 558.163 576.722 576.783 559.419C597.504 540.164 624.977 514.635 652.262 488.876C678.109 464.475 703.742 439.912 723.161 420.413C732.866 410.668 741.049 402.158 746.939 395.552C749.881 392.253 752.286 389.389 754.032 387.06C754.904 385.897 755.642 384.828 756.206 383.878C756.741 382.978 757.242 381.987 757.47 381.019C757.802 379.602 758.042 376.792 757.593 373.764C757.145 370.738 755.936 367.018 752.921 364.34C749.918 361.672 746.294 360.9 743.008 360.875C739.764 360.849 736.559 361.551 734.155 362.097C733.269 362.298 732.083 362.88 730.928 363.491C729.635 364.173 727.957 365.127 725.909 366.34C721.806 368.769 716.11 372.299 708.834 376.919C694.277 386.164 673.318 399.826 645.963 417.899C591.251 454.047 510.908 507.875 404.94 579.378L404.93 579.385L404.92 579.392C374.143 600.518 346.634 610.547 322.303 610.022C308.776 609.73 288.753 605.881 266.972 600.422C245.26 594.979 222.038 587.998 202.215 581.557C196.277 579.628 190.519 577.818 184.989 576.079C167.611 570.616 152.475 565.858 141.016 560.309C133.5 556.67 127.908 552.841 124.394 548.524C120.976 544.324 119.444 539.573 120.181 533.69C120.906 527.914 125.356 521.475 134.781 514.478C144.129 507.539 157.888 500.411 176.198 493.133Z" stroke="white" stroke-opacity="0.1" stroke-width="6"/>
<defs>
<linearGradient id="paint0_linear_4_2" x1="266.392" y1="126.778" x2="935.247" y2="889.262" gradientUnits="userSpaceOnUse">
<stop offset="0.491734" stop-color="#42B883"/>
<stop offset="0.491896" stop-color="#35495E"/>
</linearGradient>
</defs>
</svg>
