<svg width="1078" height="1078" viewBox="0 0 1078 1078" fill="none" xmlns="http://www.w3.org/2000/svg">
<path fill-rule="evenodd" clip-rule="evenodd" d="M125.089 527.345C351.917 428.559 503.171 363.433 578.851 331.968C794.933 242.127 839.833 226.521 869.099 226.005C875.535 225.892 889.927 227.487 899.249 235.048C907.121 241.433 909.287 250.058 910.323 256.111C911.36 262.165 912.65 275.955 911.624 286.73C899.915 409.715 849.248 708.167 823.471 845.913C812.564 904.198 791.088 923.741 770.296 925.653C725.111 929.809 690.8 895.804 647.036 867.127C578.555 822.255 539.867 794.321 473.394 750.533C396.572 699.929 446.372 672.116 490.153 626.662C501.61 614.767 700.696 433.755 704.549 417.334C705.031 415.28 705.478 407.625 700.929 403.583C696.379 399.541 689.664 400.923 684.819 402.022C677.95 403.581 568.55 475.862 356.618 618.865C325.565 640.18 297.438 650.565 272.238 650.021C244.456 649.421 191.015 634.319 151.288 621.41C102.56 605.577 63.8324 597.206 67.2047 570.316C68.9612 556.311 88.2561 541.987 125.089 527.345Z" fill="url(#paint0_linear_4_2)"/>
<path d="M126.198 530.133L126.243 530.115L126.287 530.096C353.119 431.308 504.349 366.192 580.003 334.738C688.055 289.813 753.237 263.478 795.054 248.31C836.923 233.123 855.058 229.253 869.151 229.005C872.133 228.953 877.088 229.299 882.395 230.567C887.721 231.839 893.175 233.984 897.36 237.378C904.355 243.052 906.362 250.752 907.366 256.618C908.373 262.5 909.631 276.012 908.638 286.446C896.943 409.278 846.301 707.605 820.522 845.361C809.669 903.359 788.663 920.951 770.021 922.666C748.314 924.663 729.087 917.528 709.652 906.116C699.927 900.404 690.216 893.662 680.141 886.508C678.461 885.315 676.771 884.11 675.069 882.898C666.596 876.86 657.842 870.621 648.681 864.618C614.463 842.197 587.689 824.008 561.15 805.943L557.64 803.554C532.277 786.289 506.836 768.97 475.044 748.028C455.995 735.48 445.206 724.596 440.106 714.833C435.119 705.286 435.462 696.606 439.295 687.872C443.217 678.933 450.8 669.946 460.401 660.18C464.631 655.877 469.193 651.481 473.943 646.904C474.557 646.312 475.174 645.717 475.795 645.119C481.198 639.908 486.799 634.469 492.313 628.743C494.995 625.959 508.163 613.722 526.783 596.419C547.504 577.164 574.977 551.635 602.262 525.876C628.109 501.475 653.742 476.912 673.161 457.413C682.866 447.668 691.049 439.158 696.939 432.552C699.881 429.253 702.286 426.389 704.032 424.06C704.904 422.897 705.642 421.828 706.206 420.878C706.741 419.978 707.242 418.987 707.47 418.019C707.802 416.602 708.042 413.792 707.593 410.764C707.145 407.738 705.936 404.018 702.921 401.34C699.918 398.672 696.294 397.9 693.008 397.875C689.764 397.849 686.559 398.551 684.155 399.097C683.269 399.298 682.083 399.88 680.928 400.491C679.635 401.173 677.957 402.127 675.909 403.34C671.806 405.769 666.11 409.299 658.834 413.919C644.277 423.164 623.318 436.826 595.963 454.899C541.251 491.047 460.908 544.875 354.94 616.378L354.93 616.385L354.92 616.392C324.143 637.518 296.634 647.547 272.303 647.022C258.776 646.73 238.753 642.881 216.972 637.422C195.26 631.979 172.038 624.998 152.215 618.557C146.277 616.628 140.519 614.818 134.989 613.079C117.611 607.616 102.475 602.858 91.0162 597.309C83.5003 593.67 77.908 589.841 74.3944 585.524C70.9764 581.324 69.4436 576.573 70.1814 570.69C70.9058 564.914 75.3559 558.475 84.7814 551.478C94.1285 544.539 107.888 537.411 126.198 530.133Z" stroke="white" stroke-opacity="0.1" stroke-width="6"/>
<defs>
<linearGradient id="paint0_linear_4_2" x1="216.392" y1="163.778" x2="854.699" y2="934.25" gradientUnits="userSpaceOnUse">
<stop offset="0.469956" stop-color="#42B883"/>
<stop offset="0.512705" stop-color="#35495E"/>
</linearGradient>
</defs>
</svg>
